<?xml version="1.0" encoding="UTF-8" standalone="no"?>
<svg
   xmlns:dc="http://purl.org/dc/elements/1.1/"
   xmlns:cc="http://creativecommons.org/ns#"
   xmlns:rdf="http://www.w3.org/1999/02/22-rdf-syntax-ns#"
   xmlns:svg="http://www.w3.org/2000/svg"
   xmlns="http://www.w3.org/2000/svg"
   xmlns:sodipodi="http://sodipodi.sourceforge.net/DTD/sodipodi-0.dtd"
   xmlns:inkscape="http://www.inkscape.org/namespaces/inkscape"
   role="img"
   viewBox="0 0 24 24"
   version="1.1"
   id="svg3789"
   sodipodi:docname="github.svg"
   inkscape:version="0.92.4 (5da689c313, 2019-01-14)">
  <metadata
     id="metadata3795">
    <rdf:RDF>
      <cc:Work
         rdf:about="">
        <dc:format>image/svg+xml</dc:format>
        <dc:type
           rdf:resource="http://purl.org/dc/dcmitype/StillImage" />
        <dc:title>GitHub icon</dc:title>
      </cc:Work>
    </rdf:RDF>
  </metadata>
  <defs
     id="defs3793" />
  <sodipodi:namedview
     pagecolor="#ffffff"
     bordercolor="#666666"
     borderopacity="1"
     objecttolerance="10"
     gridtolerance="10"
     guidetolerance="10"
     inkscape:pageopacity="0"
     inkscape:pageshadow="2"
     inkscape:window-width="1920"
     inkscape:window-height="1543"
     id="namedview3791"
     showgrid="false"
     inkscape:zoom="56.083333"
     inkscape:cx="8.6656761"
     inkscape:cy="12"
     inkscape:window-x="0"
     inkscape:window-y="27"
     inkscape:window-maximized="0"
     inkscape:current-layer="svg3789" />
  <title
     id="title3785">GitHub icon</title>
  <path
     d="M12      .297c-6.63 0-12 5.373-12 12 0 5.303 3.438 9.8 8.205      11.385.6.113.82-.258.82-.577      0-.285-.01-1.04-.015-2.04-3.338.724-4.042-1.61-4.042-1.61C4.422 18.07 3.633      17.7 3.633 17.7c-1.087-.744.084-.729.084-.729 1.205.084 1.838 1.236 1.838      1.236 1.07 1.835 2.809 1.305      3.495.998.108-.776.417-1.305.76-1.605-2.665-.3-5.466-1.332-5.466-5.93      0-1.31.465-2.38 1.235-3.22-.135-.303-.54-1.523.105-3.176 0 0 1.005-.322 3.3      1.23.96-.267 1.98-.399 3-.405 1.02.006 2.04.138 3 .405 2.28-1.552      3.285-1.23 3.285-1.23.645 1.653.24 2.873.12 3.176.765.84 1.23 1.91 1.23      3.22 0 4.61-2.805 5.625-5.475 5.92.42.36.81 1.096.81 2.22 0 1.606-.015      2.896-.015 3.286 0 .315.21.69.825.57C20.565 22.092 24 17.592 24      12.297c0-6.627-5.373-12-12-12"
     id="path3787" />
  <path
     style="fill:#ffffff;stroke-width:0.01783061"
     d="M 8.2858841,23.683501 C 8.1791103,23.669221 7.8184832,23.541769 7.4389302,23.384175 5.2275769,22.465997 3.3799129,20.956235 2.0428693,18.974951 0.50067411,16.689666 -0.20649567,13.879209 0.06700819,11.122423 0.30541826,8.7193642 1.2429889,6.4813904 2.7885823,4.6260464 5.7539042,1.0664475 10.48214,-0.46450495 14.972363,0.68106801 18.228298,1.5117419 20.990544,3.6840118 22.58604,6.6685717 c 0.741079,1.3862746 1.195569,2.9054819 1.355987,4.5326173 0.03935,0.39914 0.05425,1.381221 0.02733,1.8013 -0.132294,2.064233 -0.732508,3.93472 -1.816479,5.66081 -1.322282,2.105568 -3.326384,3.783022 -5.629253,4.711742 -0.719227,0.290056 -0.923009,0.340502 -1.14523,0.283503 -0.193203,-0.04955 -0.296884,-0.137381 -0.38321,-0.324608 l -0.04065,-0.08817 v -1.934621 c 0,-1.747717 -0.003,-1.952227 -0.03069,-2.116853 -0.10986,-0.652314 -0.318226,-1.134994 -0.634847,-1.470629 -0.074,-0.07844 -0.105521,-0.123525 -0.08978,-0.128396 0.01334,-0.0041 0.132583,-0.0209 0.264975,-0.03728 0.731386,-0.09045 1.436586,-0.262265 2.031433,-0.494927 1.158468,-0.453111 1.981182,-1.186465 2.496215,-2.225087 0.388281,-0.78301 0.57618,-1.614503 0.625163,-2.766472 0.03244,-0.762904 -0.03093,-1.319437 -0.216232,-1.899064 C 19.223524,9.6180166 18.93547,9.0876576 18.575971,8.6538364 18.386184,8.4248118 18.40006,8.4566748 18.439804,8.3411519 c 0.05364,-0.1559123 0.120336,-0.4444118 0.154984,-0.6704238 0.02323,-0.1515242 0.03115,-0.307453 0.03035,-0.5973254 -0.0012,-0.446004 -0.03394,-0.7152728 -0.138622,-1.141159 -0.05693,-0.2316127 -0.188835,-0.6389499 -0.215619,-0.665852 -0.0064,-0.00644 -0.11824,-0.014318 -0.248505,-0.017505 -0.181457,-0.00444 -0.285058,0.00284 -0.443008,0.031117 -0.676069,0.121041 -1.555872,0.5190284 -2.414866,1.092388 L 14.982237,6.4940619 14.852486,6.4586858 C 14.01009,6.2290112 12.983137,6.0988294 12.003566,6.0975418 11.019038,6.0962473 10.063605,6.212661 9.1906147,6.4402811 L 8.9898476,6.4926282 8.8072566,6.3738706 C 8.1282708,5.9322565 7.4909665,5.6109227 6.9207479,5.422678 6.5080511,5.2864354 6.3409328,5.2564292 5.9895771,5.2554849 5.7424577,5.2548198 5.6873028,5.259342 5.6731107,5.2814264 5.6463532,5.3230647 5.4993928,5.7796549 5.4596687,5.9445678 5.2585952,6.7793196 5.2810488,7.6626332 5.520081,8.3211593 5.557506,8.4242641 5.5612229,8.4499154 5.5420217,8.4725727 5.3323068,8.7200345 5.2568407,8.8170975 5.139631,8.9901192 4.7314577,9.5926536 4.4808571,10.246599 4.3810438,10.96966 c -0.063728,0.461657 -0.052119,1.277232 0.027033,1.899088 0.2837728,2.229466 1.3765035,3.634462 3.3502775,4.307672 0.4935895,0.168352 1.0374724,0.293342 1.6545788,0.380239 0.1785691,0.02515 0.3333206,0.04572 0.3438923,0.04572 0.010572,0 -0.033754,0.06074 -0.098501,0.134982 -0.289882,0.332384 -0.4858898,0.758237 -0.5806486,1.261537 l -0.038013,0.201903 -0.1496464,0.05858 C 8.4989799,19.412464 8.1538975,19.488177 7.7777117,19.503427 7.1068691,19.530622 6.5244608,19.307078 6.0598415,18.844062 5.8746271,18.659486 5.7511876,18.500341 5.5749743,18.218946 5.2654171,17.724612 4.8976442,17.379176 4.450307,17.162585 4.1743596,17.028978 3.9559615,16.973912 3.6945022,16.972022 3.30011,16.969169 3.1180718,17.072559 3.1761538,17.266419 c 0.031,0.103469 0.2168895,0.28149 0.4692005,0.449339 0.1151677,0.07662 0.2616777,0.18668 0.3255776,0.244589 0.3983298,0.360982 0.715684,0.837059 0.966027,1.449177 0.1122659,0.274504 0.1889463,0.422903 0.3100226,0.599986 0.3137613,0.458897 0.786858,0.815147 1.3375845,1.007222 0.3890147,0.135677 0.7230278,0.187428 1.2097002,0.187428 0.4203532,0 0.7446587,-0.03293 1.1558081,-0.11737 l 0.057949,-0.0119 v 1.080312 c 0,1.038087 -0.0014,1.084051 -0.035804,1.176005 -0.072533,0.193863 -0.2269653,0.314683 -0.448085,0.350564 -0.06239,0.01012 -0.1214603,0.01734 -0.1312671,0.01603 -0.00981,-0.0013 -0.057949,-0.0077 -0.1069831,-0.0143 z"
     id="path3801"
     inkscape:connector-curvature="0" />
</svg>
