<?xml version="1.0" encoding="UTF-8" standalone="no"?>
<svg
   xmlns:dc="http://purl.org/dc/elements/1.1/"
   xmlns:cc="http://creativecommons.org/ns#"
   xmlns:rdf="http://www.w3.org/1999/02/22-rdf-syntax-ns#"
   xmlns:svg="http://www.w3.org/2000/svg"
   xmlns="http://www.w3.org/2000/svg"
   xmlns:sodipodi="http://sodipodi.sourceforge.net/DTD/sodipodi-0.dtd"
   xmlns:inkscape="http://www.inkscape.org/namespaces/inkscape"
   role="img"
   viewBox="0 0 24 24"
   version="1.1"
   id="svg3942"
   sodipodi:docname="linkedin.svg"
   inkscape:version="0.92.4 (5da689c313, 2019-01-14)">
  <metadata
     id="metadata3948">
    <rdf:RDF>
      <cc:Work
         rdf:about="">
        <dc:format>image/svg+xml</dc:format>
        <dc:type
           rdf:resource="http://purl.org/dc/dcmitype/StillImage" />
        <dc:title>LinkedIn icon</dc:title>
      </cc:Work>
    </rdf:RDF>
  </metadata>
  <defs
     id="defs3946" />
  <sodipodi:namedview
     pagecolor="#ffffff"
     bordercolor="#666666"
     borderopacity="1"
     objecttolerance="10"
     gridtolerance="10"
     guidetolerance="10"
     inkscape:pageopacity="0"
     inkscape:pageshadow="2"
     inkscape:window-width="640"
     inkscape:window-height="480"
     id="namedview3944"
     showgrid="false"
     inkscape:zoom="9.8333333"
     inkscape:cx="12"
     inkscape:cy="12"
     inkscape:window-x="638"
     inkscape:window-y="383"
     inkscape:window-maximized="0"
     inkscape:current-layer="svg3942" />
  <title
     id="title3938">LinkedIn icon</title>
  <path
     d="M20.447 20.452h-3.554v-5.569c0-1.328-.027-3.037-1.852-3.037-1.853      0-2.136 1.445-2.136 2.939v5.667H9.351V9h3.414v1.561h.046c.477-.9 1.637-1.85      3.37-1.85 3.601 0 4.267 2.37 4.267 5.455v6.286zM5.337 7.433c-1.144      0-2.063-.926-2.063-2.065 0-1.138.92-2.063 2.063-2.063 1.14 0 2.064.925      2.064 2.063 0 1.139-.925 2.065-2.064 2.065zm1.782      13.019H3.555V9h3.564v11.452zM22.225 0H1.771C.792 0 0 .774 0 1.729v20.542C0      23.227.792 24 1.771 24h20.451C23.2 24 24 23.227 24 22.271V1.729C24 .774      23.2 0 22.222 0h.003z"
     id="path3940" />
  <path
     style="fill:#ffffff;stroke-width:0.10169491"
     d="M 1.0881356,23.768061 C 0.60428994,23.545878 0.38746581,23.319089 0.17675982,22.814799 0.03945155,22.486174 0.02033898,21.168244 0.02033898,12.028611 0.02033898,4.5267101 0.05262813,1.5201787 0.135871,1.2711074 0.28365487,0.82892282 0.69272175,0.37970122 1.110293,0.20103447 1.3811695,0.08513423 3.2605029,0.06101695 12.021124,0.06101695 c 10.342508,0 10.592568,0.0045805 10.977753,0.20108753 0.21679,0.11059813 0.500984,0.35085237 0.631542,0.5338983 L 23.867797,1.1288136 V 12.010169 22.891525 l -0.229524,0.32178 c -0.126238,0.17698 -0.426702,0.417234 -0.6677,0.533899 -0.435625,0.210882 -0.499471,0.212105 -10.956917,0.209885 C 2.0245445,23.954967 1.4744335,23.94545 1.0881356,23.768061 Z M 7.1389831,14.705085 V 8.9084746 H 5.3084746 3.4779661 v 5.7966104 5.79661 h 1.8305085 1.8305085 z m 5.8158889,2.313559 c 0.03833,-3.755103 0.06312,-3.936022 0.621168,-4.533699 0.669668,-0.717223 2.026043,-0.785392 2.650856,-0.133229 C 16.763667,12.911985 16.8,13.207047 16.8,17.006006 v 3.495689 h 1.830508 1.830509 v -3.919542 c 0,-4.172888 -0.0677,-4.933594 -0.525814,-5.908188 C 19.60164,9.9643409 19.013418,9.3788107 18.305921,9.0521381 17.701406,8.7730161 17.588053,8.7559322 16.340567,8.7559322 c -1.287979,0 -1.342035,0.00895 -1.995517,0.3305017 -0.384077,0.1889874 -0.851399,0.5254783 -1.091414,0.7858633 L 12.833898,10.327659 V 9.6180668 8.9084746 H 11.054237 9.2745763 v 5.7966104 5.79661 h 1.8223697 1.822369 z M 6.1728814,7.291356 C 6.7070256,7.0432805 7.0179501,6.7352482 7.2500173,6.2242398 8.1332103,4.2794625 5.8989732,2.4607599 4.0940274,3.6552165 3.0217501,4.3648159 2.9861562,6.2322759 4.029737,7.0282538 4.6629939,7.5112624 5.4827126,7.6118948 6.1728814,7.291356 Z"
     id="path3950"
     inkscape:connector-curvature="0" />
</svg>
